<?xml version="1.0" encoding="utf-8"?>
<!-- Generator: Adobe Illustrator 19.0.0, SVG Export Plug-In . SVG Version: 6.00 Build 0)  -->
<svg version="1.1"
	 id="svg3287" xmlns:sodipodi="http://sodipodi.sourceforge.net/DTD/sodipodi-0.dtd" xmlns:dc="http://purl.org/dc/elements/1.1/" xmlns:rdf="http://www.w3.org/1999/02/22-rdf-syntax-ns#" xmlns:inkscape="http://www.inkscape.org/namespaces/inkscape" xmlns:ns1="http://sozi.baierouge.fr" xmlns:cc="http://creativecommons.org/ns#" sodipodi:docname="New document 5" inkscape:version="0.48.4 r9939"
	 xmlns="http://www.w3.org/2000/svg" xmlns:xlink="http://www.w3.org/1999/xlink" x="0px" y="0px" viewBox="-265 18.7 429 524.3"
	 style="enable-background:new -265 18.7 429 524.3;" xml:space="preserve">
<style type="text/css">
	.st0{fill:#A4E1FF;}
	.st1{fill:#3500F7;}
	.st2{fill:#55F9F9;}
</style>
<path id="rect2985" sodipodi:nodetypes="ssscscccsscccscssss" inkscape:connector-curvature="0" d="M-112,18.8
	c-9,0-16.3,10.5-16.3,19.6v7.7c0,6.4,3.7,11.9,9,14.6c-0.1,1.1-0.2,2.1-0.2,3.2v153.8c-2.4,4.6-4.8,9.3-7.3,14l-132.2,239
	c-21.3,39.1,19.2,72.4,43.1,72.4h330.7c23.9,0,64.8-32.5,43.1-72.4L25.7,231.6c-2.6-4.7-4.9-9.4-7.3-14V63.8c0-1.1-0.1-2.1-0.2-3.2
	c5.3-2.7,9-8.2,9-14.6v-7.7c0-9-7.3-19.6-16.3-19.6L-112,18.8z"/>
<g id="g3213" transform="matrix(1.6291 0 0 1.6291 -1390.6 -814.74)">
	<path id="path3201" sodipodi:nodetypes="sssssssss" inkscape:connector-curvature="0" class="st0" d="M807,630.2h31.3
		c12.5,0,16.5,11.6,22.5,22.6l70.7,130.7c14.3,26.4-10,38-22.5,38H736.2c-12.5,0-35.2-14.5-22.5-38l70.7-130.7
		C790.4,641.8,794.5,630.2,807,630.2L807,630.2z"/>
	<rect id="rect3203" x="790.5" y="531.9" class="st0" width="64.2" height="117.7"/>
	<path id="rect3205" class="st0" d="M784.8,529v-4.7c0-2.4,1.9-4.3,4.3-4.3H856c2.4,0,4.3,1.9,4.3,4.3v4.7c0,2.4-1.9,4.3-4.3,4.3
		h-66.9C786.7,533.3,784.8,531.4,784.8,529z"/>
</g>
<path id="path3201-1" sodipodi:nodetypes="csssscc" inkscape:connector-curvature="0" class="st1" d="M16.7,280.2L108.6,455
	c20.1,38.3-14.4,54.7-32.4,54.7h-248.7c-17.9,0-50.8-20.9-32.4-54.7l90.1-165.8C-35.1,320.5-6.1,233.6,16.7,280.2L16.7,280.2z"/>
<path id="path3252" sodipodi:rx="8.3682728" sodipodi:ry="8.3682728" sodipodi:type="arc" sodipodi:cy="805.20874" sodipodi:cx="1124.9349" class="st2" d="
	M-39.3,407.2c0,16.4-13.3,29.7-29.7,29.7s-29.7-13.3-29.7-29.7c0-16.4,13.3-29.7,29.7-29.7S-39.3,390.8-39.3,407.2z"/>
<path id="path3254" sodipodi:rx="8.3682728" sodipodi:ry="8.3682728" sodipodi:type="arc" sodipodi:cy="805.20874" sodipodi:cx="1124.9349" class="st2" d="
	M-81.5,371.7c0,9.7-7.9,17.5-17.5,17.5c-9.7,0-17.5-7.9-17.5-17.5s7.9-17.5,17.5-17.5C-89.3,354.2-81.5,362-81.5,371.7z"/>
<path id="path3256" sodipodi:rx="8.3682728" sodipodi:ry="8.3682728" sodipodi:type="arc" sodipodi:cy="805.20874" sodipodi:cx="1124.9349" class="st2" d="
	M-12.2,337.5c0,5.7-4.6,10.3-10.3,10.3s-10.3-4.6-10.3-10.3c0-5.7,4.6-10.3,10.3-10.3S-12.2,331.8-12.2,337.5z"/>
<path id="rect3264" d="M-23.9,55.8L-23.9,55.8c4.2,0,7.5,3.4,7.5,7.5v149c0,4.2-3.4,7.5-7.5,7.5l0,0c-4.2,0-7.5-3.4-7.5-7.5v-149
	C-31.4,59.2-28.1,55.8-23.9,55.8z"/>
</svg>
